#!OML:ASF E:\Steps\Project 1\Capture day 1\Session 2\Subject.ASF
:FULLY-SPECIFIED
:DEGREES
206
root 10.3127 16.0492 18.4729 184.41 86.9193 166.016
lowerback -25.53 -3.50126 -7.47667
upperback -3.59241 -2.06912 -0.75515
thorax 10.4537 -1.08938 2.76613
lowerneck -0.091911 0.137916 -5.42248
upperneck 9.01238 -0.0615595 6.9555
head 2.95759 0.0639823 3.28108
rclavicle 1.77664e-015 -2.38542e-015
rhumerus -45.0775 2.4608 -82.2055
rradius 47.3916
rwrist -2.57696
rhand -14.3658 -46.6215
rfingers 7.12502
rthumb 11.7764 -76.2704
lclavicle 1.77664e-015 -2.38542e-015
lhumerus -35.3682 -37.9995 67.4053
lradius 49.8198
lwrist 6.64682
lhand -30.0503 -24.7406
lfingers 7.12502
lthumb -3.36607 5.21257
rfemur -35.004 3.70267 20.0425
rtibia 43.0401
rfoot -17.3974 3.66622
rtoes -34.528
lfemur -35.643 -14.6346 -12.2429
ltibia 46.6109
lfoot -5.51849 3.26495
ltoes -64.1998
207
root 10.314 15.7994 18.4695 192.042 85.0377 174.283
lowerback -24.5708 -3.36501 -7.23371
upperback -3.20458 -2.07905 -0.673481
thorax 10.3851 -1.11221 2.7299
lowerneck -0.458133 0.213915 -5.79099
upperneck 9.04321 0.0593968 7.01637
head 3.03238 0.118011 3.3814
rclavicle 1.58717e-014 4.45278e-014
rhumerus -43.2878 1.50444 -81.6236
rradius 45.7733
rwrist -1.5408
rhand -14.5813 -47.3555
rfingers 7.12502
rthumb 11.5686 -77.0162
lclavicle 1.58717e-014 4.45278e-014
lhumerus -35.2909 -36.3928 68.4528
lradius 48.4177
lwrist 6.77294
lhand -29.7661 -24.8373
lfingers 7.12502
lthumb -3.09159 5.12
rfemur -34.9724 2.78699 20.683
rtibia 45.6181
rfoot -23.1125 3.46508
rtoes -41.469
lfemur -35.8328 -14.9185 -12.2359
ltibia 48.3827
lfoot -10.0027 5.28023
ltoes -64.0967
208
root 10.2975 15.5831 18.4833 193.881 83.2822 176.958
lowerback -23.0715 -3.11432 -7.36362
upperback -2.94542 -1.86847 -0.762921
thorax 9.85837 -1.02437 2.80287
lowerneck -0.42555 0.18477 -5.73011
upperneck 9.03149 0.0205876 7.03128
head 3.02475 0.102624 3.37346
rclavicle 2.18353e-014 -6.36111e-015
rhumerus -42.0524 0.149936 -81.2417
rradius 44.3691
rwrist -1.3858
rhand -15.1112 -47.9298
rfingers 7.12502
rthumb 11.0575 -77.6186
lclavicle 2.18353e-014 -6.36111e-015
lhumerus -35.4119 -35.4533 69.4576
lradius 47.3062
lwrist 7.35405
lhand -29.639 -24.6016
lfingers 7.12502
lthumb -2.96882 5.35746
rfemur -34.363 2.89407 20.9469
rtibia 46.8314
rfoot -26.8997 3.97773
rtoes -31.99
lfemur -35.7499 -15.2597 -12.242
ltibia 49.9155
lfoot -14.5592 6.5715
ltoes -62.9409
209
root 10.2906 15.3945 18.4943 199.248 81.598 182.634
lowerback -22.3793 -2.7844 -6.70763
upperback -2.77445 -1.67592 -0.744119
thorax 9.63987 -0.917081 2.52262
lowerneck -0.397861 0.158627 -5.70857
upperneck 9.03168 -0.0141998 7.05909
head 3.02234 0.088337 3.37807
rclavicle -2.55935e-015 -9.54166e-015
rhumerus -40.9778 -0.989615 -81.0369
rradius 43.1154
rwrist -1.03925
rhand -15.142 -48.2147
rfingers 7.12502
rthumb 11.0278 -77.905
lclavicle -2.55935e-015 -9.54166e-015
lhumerus -35.6486 -34.0841 70.248
lradius 46.4309
lwrist 7.57058
lhand -28.9526 -24.9479
lfingers 7.12502
lthumb -2.30596 5.01935
rfemur -33.9102 2.95879 22.2697
rtibia 47.5664
rfoot -30.4038 1.47915
rtoes -33.0277
lfemur -35.9153 -15.4164 -11.2822
ltibia 50.7371
lfoot -19.4006 6.01485
ltoes -59.1718
210
root 10.2896 15.2163 18.4921 201.686 80.0004 184.827
lowerback -22.4346 -2.63083 -6.12313
upperback -2.6689 -1.60995 -0.767829
thorax 9.76452 -0.870019 2.18103
lowerneck -0.41781 0.182882 -5.72357
upperneck 9.03121 0.0221141 7.06533
head 3.02346 0.107469 3.38431
rclavicle -1.43746e-014 -3.18055e-014
rhumerus -39.8315 -1.8087 -81.0187
rradius 41.8656
rwrist -0.161465
rhand -13.7748 -47.9941
rfingers 7.12502
rthumb 12.3462 -77.6096
lclavicle -1.43746e-014 -3.18055e-014
lhumerus -35.9671 -32.2014 70.8398
lradius 45.7252
lwrist 7.24666
lhand -27.9316 -25.6237
lfingers 7.12502
lthumb -1.31987 4.35197
rfemur -34.0009 2.52116 23.3668
rtibia 48.085
rfoot -33.7323 -2.81467
rtoes -37.0878
lfemur -36.5686 -16.0124 -10.4118
ltibia 51.3327
lfoot -24.2274 4.3743
ltoes -51.6675
211
root 10.2828 15.0564 18.4903 202.528 78.6644 185.116
lowerback -22.7306 -2.47778 -5.89528
upperback -2.66772 -1.42003 -0.888319
thorax 9.90038 -0.767599 1.97146
lowerneck -0.371756 0.173091 -5.52664
upperneck 9.01161 0.00919443 7.01729
head 3.00663 0.107197 3.32825
rclavicle 6.21202e-015 7.95139e-015
rhumerus -38.8087 -2.71956 -81.2178
rradius 40.7374
rwrist 0.950935
rhand -12.3234 -47.8861
rfingers 7.12502
rthumb 13.7453 -77.4121
lclavicle 6.21202e-015 7.95139e-015
lhumerus -36.2055 -30.4592 71.3711
lradius 45.0124
lwrist 6.39935
lhand -27.4785 -25.7842
lfingers 7.12502
lthumb -0.882218 4.19376
rfemur -34.581 2.39478 24.1423
rtibia 48.7509
rfoot -36.4202 -6.09106
rtoes -37.6399
lfemur -37.413 -16.3283 -9.75615
ltibia 51.9661
lfoot -28.4152 1.97363
ltoes -41.3607
212
root 10.2731 14.9195 18.4895 202.602 77.6966 184.798
lowerback -22.7965 -2.20052 -5.84593
upperback -2.64983 -1.03516 -1.09036
thorax 9.92068 -0.577918 1.83851
lowerneck -0.363157 0.132557 -5.39978
upperneck 9.01117 -0.0437287 6.9904
head 3.00726 0.0858731 3.29321
rclavicle -8.69683e-015 2.38542e-014
rhumerus -37.831 -3.67072 -81.4494
rradius 39.7298
rwrist 1.94351
rhand -12.3206 -48.6392
rfingers 7.12502
rthumb 13.748 -78.165
lclavicle -8.69683e-015 2.38542e-014
lhumerus -36.3156 -28.933 72.0554
lradius 44.1598
lwrist 5.25924
lhand -27.6728 -25.7006
lfingers 7.12502
lthumb -1.06993 4.27642
rfemur -35.1344 3.24703 24.5853
rtibia 49.7479
rfoot -38.2609 -8.65843
rtoes -36.9408
lfemur -37.8756 -15.9375 -9.43814
ltibia 52.5151
lfoot -30.7927 0.429175
ltoes -37.8754
213
root 10.2394 14.812 18.486 201.158 76.6125 182.359
lowerback -23.0326 -2.24998 -6.17999
upperback -2.86042 -0.954894 -1.30063
thorax 9.80787 -0.529269 1.82195
lowerneck -0.361449 0.160014 -5.54077
upperneck 9.03742 -0.00107363 6.99548
head 3.0143 0.103513 3.32361
rclavicle 1.15295e-014 -6.36111e-015
rhumerus -36.9091 -3.74469 -81.8087
rradius 38.8509
rwrist 2.53323
rhand -12.4022 -49.2403
rfingers 7.12502
rthumb 13.6694 -78.7714
lclavicle 1.15295e-014 -6.36111e-015
lhumerus -36.3809 -27.1619 72.9183
lradius 42.9852
lwrist 4.15125
lhand -28.0841 -25.8962
lfingers 7.12502
lthumb -1.46718 4.0785
rfemur -37.0397 4.10486 24.0392
rtibia 51.7167
rfoot -39.6493 -10.8584
rtoes -36.6767
lfemur -40.6067 -16.3378 -9.29327
ltibia 54.8259
lfoot -31.8604 1.86318
ltoes -45.0978
214
root 10.2087 14.7371 18.5051 200.245 75.8842 181.132
lowerback -22.5884 -2.21294 -6.71593
upperback -2.9038 -0.797068 -1.40999
thorax 9.51511 -0.462459 2.06192
lowerneck -0.342164 0.188238 -5.50815
upperneck 9.06547 0.0412702 6.94297
head 3.01635 0.125117 3.30024
rclavicle 1.9133e-014 6.36111e-015
rhumerus -36.0445 -3.55915 -82.3373
rradius 38.095
rwrist 3.02552
rhand -11.5634 -49.0068
rfingers 7.12502
rthumb 14.4777 -78.4817
lclavicle 1.9133e-014 6.36111e-015
lhumerus -36.0684 -24.8587 73.5212
lradius 41.3219
lwrist 2.71468
lhand -28.3248 -26.2527
lfingers 7.12502
lthumb -1.69958 3.72024
rfemur -38.4113 5.53529 23.7464
rtibia 53.9619
rfoot -40.7655 -12.3802
rtoes -36.064
lfemur -42.536 -16.9424 -9.06038
ltibia 56.9728
lfoot -31.8707 2.91471
ltoes -49.9146
215
root 10.1841 14.6765 18.5159 199.181 75.3073 179.96
lowerback -22.1183 -2.01813 -7.13165
upperback -2.78233 -0.455124 -1.6691
thorax 9.37101 -0.311276 2.11877
lowerneck -0.315419 0.136882 -5.08532
upperneck 9.05584 -0.0299373 6.84597
head 3.00807 0.102609 3.18326
rclavicle 1.93815e-014 5.56597e-015
rhumerus -35.0904 -3.82793 -82.909
rradius 37.3854
rwrist 3.4245
rhand -11.1597 -48.6639
rfingers 7.12502
rthumb 14.8667 -78.1105
lclavicle 1.93815e-014 5.56597e-015
lhumerus -35.3875 -23.0939 74.0413
lradius 39.5062
lwrist 2.00158
lhand -28.4183 -26.2494
lfingers 7.12502
lthumb -1.7899 3.72279
rfemur -39.628 6.92809 23.3208
rtibia 56.2128
rfoot -41.6136 -13.8024
rtoes -35.6045
lfemur -44.3212 -17.7707 -8.92898
ltibia 59.1219
lfoot -31.5868 1.29015
ltoes -47.1128
